<?xml version="1.0" encoding="UTF-8"?>
<svg xmlns="http://www.w3.org/2000/svg" id="Layer_3" data-name="Layer 3" viewBox="0 0 64 64" width="512" height="512"><path d="M62,23H15.486L62.334,10.681a1,1,0,0,0,.713-1.221L61.013,1.723A1,1,0,0,0,59.79,1.01L5.323,15.432a1,1,0,0,0-.711,1.22L4.7,17H2a1,1,0,0,0-1,1V28a1,1,0,0,0,1,1H5.08v3a1,1,0,0,0,1,1h1V62a1,1,0,0,0,1,1H60a1,1,0,0,0,1-1V33h1a1,1,0,0,0,1-1V24A1,1,0,0,0,62,23ZM45.414,31l6-6h8.172l-6,6Zm-30,0,6-6h7.172l-6,6Zm16-6h7.172l-6,6H25.414Zm10,0h7.172l-6,6H35.414Zm1.637-11.316-6.937,1.824,4.252-7.287,6.946-1.839Zm7-8.027,7.914-2.1-4.275,7.325-7.9,2.078ZM33.38,16.227l-6.938,1.825,4.24-7.266,6.946-1.84Zm-9.673,2.544L16.771,20.6,21,13.35l6.945-1.839Zm32.716-8.6,3.269-5.6L60.858,9ZM18.261,14.075l-4.225,7.239L13,21.587V18a1,1,0,0,0-1-1H7.213ZM3,19h8v8H3Zm9,10a1,1,0,0,0,1-1V25h5.586l-6,6H7.08V29ZM59,61H9.08V33H59ZM56.414,31,61,26.414V31Z"/><path d="M7,20a3,3,0,1,0,3,3A3,3,0,0,0,7,20Zm0,4a1,1,0,1,1,1-1A1,1,0,0,1,7,24Z"/><path d="M45,50a3,3,0,0,0-2.816,2H15v2H42.184a2.982,2.982,0,0,0,5.632,0H53V52H47.816A3,3,0,0,0,45,50Zm0,4a1,1,0,1,1,1-1A1,1,0,0,1,45,54Z"/><path d="M30.516,49.875a1,1,0,0,0,1.014-.027l8-5a1,1,0,0,0,0-1.7l-8-5A1,1,0,0,0,30,39V49A1,1,0,0,0,30.516,49.875ZM32,40.805,37.113,44,32,47.2Z"/><path d="M12,59H56a1,1,0,0,0,1-1V36a1,1,0,0,0-1-1H12a1,1,0,0,0-1,1V58A1,1,0,0,0,12,59Zm1-22H55V57H13Z"/><path d="M52,39H49v2h2v2h2V40A1,1,0,0,0,52,39Z"/><path d="M17,41h2V39H16a1,1,0,0,0-1,1v3h2Z"/><rect x="51" y="45" width="2" height="2"/></svg>
